<svg id="Слой_1" data-name="Слой 1" xmlns="http://www.w3.org/2000/svg" viewBox="0 0 256.12 142.73"><defs><style>.cls-1,.cls-2{fill:#ecff13;stroke:#000;stroke-miterlimit:10;}.cls-2{stroke-width:1.02px;}.cls-11,.cls-3{font-size:12px;font-family:MyriadPro-Regular, Myriad Pro;}.cls-12,.cls-3{fill:#cd3c00;}.cls-4{letter-spacing:-0.01em;}.cls-5{letter-spacing:0em;}.cls-6{letter-spacing:0.01em;}.cls-7{letter-spacing:0em;}.cls-8{letter-spacing:0.02em;}.cls-9{letter-spacing:-0.01em;}.cls-10{letter-spacing:-0.01em;}.cls-13{letter-spacing:-0.01em;}.cls-14{letter-spacing:-0.02em;}.cls-15{letter-spacing:0em;}.cls-16{letter-spacing:-0.01em;}.cls-17{letter-spacing:-0.01em;}.cls-18{letter-spacing:0.02em;}.cls-19{letter-spacing:-0.02em;}.cls-20{letter-spacing:0em;}</style></defs><title>Подсветка</title><rect class="cls-1" x="0.5" y="0.5" width="255.12" height="141.73"/><path class="cls-1" d="M431.67,318.67" transform="translate(-398.65 -296.44)"/><path class="cls-1" d="M412.33,333.67" transform="translate(-398.65 -296.44)"/><path class="cls-1" d="M412.33,338.33V313a51.43,51.43,0,0,0,16.52,19.91,52.25,52.25,0,0,0,14.82,7.42H416.33l10.38-9.05" transform="translate(-398.65 -296.44)"/><path class="cls-1" d="M412.33,352" transform="translate(-398.65 -296.44)"/><path class="cls-1" d="M426.71,331.28" transform="translate(-398.65 -296.44)"/><path class="cls-1" d="M412.33,357.33" transform="translate(-398.65 -296.44)"/><path class="cls-1" d="M526.71,350.28" transform="translate(-398.65 -296.44)"/><path class="cls-1" d="M412.33,357.33" transform="translate(-398.65 -296.44)"/><path class="cls-1" d="M526.71,350.28" transform="translate(-398.65 -296.44)"/><path class="cls-1" d="M526.71,350.28" transform="translate(-398.65 -296.44)"/><path class="cls-1" d="M526.71,350.28" transform="translate(-398.65 -296.44)"/><path class="cls-1" d="M526.71,350.28" transform="translate(-398.65 -296.44)"/><path class="cls-1" d="M416.67,380.67h41a78,78,0,0,1-27.34-14.34,75.58,75.58,0,0,1-5.95-5.38,77.64,77.64,0,0,1-12.05-15.62v32L424.38,361" transform="translate(-398.65 -296.44)"/><path class="cls-2" d="M412.33,415.49V386A119.25,119.25,0,0,0,446,411a115,115,0,0,0,25.33,9H418l19.47-13.7" transform="translate(-398.65 -296.44)"/><path class="cls-1" d="M562,409.67" transform="translate(-398.65 -296.44)"/><path class="cls-1" d="M426.71,313" transform="translate(-398.65 -296.44)"/><path class="cls-2" d="M614.33,383.33" transform="translate(-398.65 -296.44)"/><path class="cls-2" d="M479.67,403" transform="translate(-398.65 -296.44)"/><path class="cls-2" d="M583,387.33" transform="translate(-398.65 -296.44)"/><path class="cls-1" d="M422.33,265" transform="translate(-398.65 -296.44)"/><path class="cls-2" d="M453,409.67" transform="translate(-398.65 -296.44)"/><path class="cls-2" d="M429.67,318.67" transform="translate(-398.65 -296.44)"/><text x="-398.65" y="-296.44"></text><text class="cls-3" transform="translate(38.68 23.56)"><tspan xml:space="preserve">      </tspan><tspan x="0" y="86.4" xml:space="preserve">             П</tspan><tspan class="cls-4" x="40.74" y="86.4">о</tspan><tspan class="cls-5" x="47.24" y="86.4">д</tspan><tspan x="53.55" y="86.4">св</tspan><tspan class="cls-5" x="64.93" y="86.4">е</tspan><tspan class="cls-4" x="70.89" y="86.4">т</tspan><tspan class="cls-6" x="75.74" y="86.4">к</tspan><tspan x="81.61" y="86.4">а </tspan><tspan class="cls-7" x="89.94" y="86.4">д</tspan><tspan x="96.25" y="86.4">еревьев на уча</tspan><tspan class="cls-8" x="174.13" y="86.4">с</tspan><tspan class="cls-9" x="179.7" y="86.4">т</tspan><tspan class="cls-10" x="184.54" y="86.4">к</tspan><tspan x="190.22" y="86.4">е</tspan></text><text x="-398.65" y="-296.44"></text><line class="cls-1" x1="13.68" y1="130.9" x2="239.01" y2="130.9"/><path class="cls-1" d="M595.33,459.33" transform="translate(-398.65 -296.44)"/><text class="cls-11" transform="translate(67.35 25.9)"><tspan xml:space="preserve">                             </tspan><tspan class="cls-12" x="73.77" y="0">+7 (953) 372 53 87</tspan><tspan class="cls-12"><tspan x="0" y="14.4" xml:space="preserve">                                   c</tspan><tspan class="cls-13" x="94.41" y="14.4">r</tspan><tspan x="98.22" y="14.4">ona-sp</tspan><tspan class="cls-14" x="132.51" y="14.4">b</tspan><tspan x="139.05" y="14.4">.</tspan><tspan class="cls-10" x="141.54" y="14.4">c</tspan><tspan x="146.84" y="14.4">om</tspan><tspan x="0" y="43.2" xml:space="preserve">  *мо</tspan><tspan class="cls-15" x="24.32" y="43.2">н</tspan><tspan class="cls-16" x="30.84" y="43.2">т</tspan><tspan x="35.6" y="43.2">аж пр</tspan><tspan class="cls-17" x="65.25" y="43.2">о</tspan><tspan class="cls-10" x="71.75" y="43.2">ж</tspan><tspan x="79.68" y="43.2">е</tspan><tspan class="cls-18" x="85.69" y="43.2">к</tspan><tspan class="cls-19" x="91.64" y="43.2">т</tspan><tspan x="96.33" y="43.2">оров</tspan><tspan x="0" y="57.6" xml:space="preserve">  *</tspan><tspan class="cls-5" x="10.07" y="57.6">д</tspan><tspan x="16.38" y="57.6">е</tspan><tspan class="cls-10" x="22.39" y="57.6">к</tspan><tspan x="28.07" y="57.6">ор</tspan><tspan class="cls-4" x="41.48" y="57.6">ат</tspan><tspan class="cls-20" x="52.03" y="57.6">ивное осве</tspan><tspan class="cls-5" x="110.35" y="57.6">щ</tspan><tspan x="119.29" y="57.6">ение</tspan></tspan></text></svg>